<mxfile host="app.diagrams.net" modified="2023-10-30T09:11:03.873Z" agent="Mozilla/5.0 (Macintosh; Intel Mac OS X 10_15_7) AppleWebKit/537.36 (KHTML, like Gecko) Chrome/118.0.0.0 Safari/537.36" etag="enQZ4TfPMHF7XU8NawIX" version="22.0.8" type="github">
  <diagram name="第 1 页" id="UesgXo60L_oOUY2IGcXx">
    <mxGraphModel dx="1194" dy="662" grid="1" gridSize="10" guides="1" tooltips="1" connect="1" arrows="1" fold="1" page="1" pageScale="1" pageWidth="827" pageHeight="1169" math="0" shadow="0">
      <root>
        <mxCell id="0" />
        <mxCell id="1" parent="0" />
        <mxCell id="baJf303HVOykrIhzs44v-4" value="" style="edgeStyle=orthogonalEdgeStyle;rounded=0;orthogonalLoop=1;jettySize=auto;html=1;fontSize=17;" parent="1" target="baJf303HVOykrIhzs44v-3" edge="1">
          <mxGeometry relative="1" as="geometry">
            <mxPoint x="170" y="300" as="sourcePoint" />
          </mxGeometry>
        </mxCell>
        <mxCell id="baJf303HVOykrIhzs44v-33" value="{{开始" style="edgeLabel;html=1;align=center;verticalAlign=middle;resizable=0;points=[];fontSize=17;" parent="baJf303HVOykrIhzs44v-4" vertex="1" connectable="0">
          <mxGeometry x="-0.06" y="1" relative="1" as="geometry">
            <mxPoint as="offset" />
          </mxGeometry>
        </mxCell>
        <mxCell id="baJf303HVOykrIhzs44v-7" value="" style="edgeStyle=orthogonalEdgeStyle;rounded=0;orthogonalLoop=1;jettySize=auto;html=1;fontSize=17;" parent="1" target="baJf303HVOykrIhzs44v-6" edge="1">
          <mxGeometry relative="1" as="geometry">
            <mxPoint x="170" y="400" as="sourcePoint" />
          </mxGeometry>
        </mxCell>
        <mxCell id="baJf303HVOykrIhzs44v-29" value="非以上条件" style="edgeLabel;html=1;align=center;verticalAlign=middle;resizable=0;points=[];fontSize=17;" parent="baJf303HVOykrIhzs44v-7" vertex="1" connectable="0">
          <mxGeometry x="-0.28" y="3" relative="1" as="geometry">
            <mxPoint x="-3" y="4" as="offset" />
          </mxGeometry>
        </mxCell>
        <mxCell id="baJf303HVOykrIhzs44v-14" value="" style="edgeStyle=orthogonalEdgeStyle;rounded=0;orthogonalLoop=1;jettySize=auto;html=1;fontSize=17;" parent="1" target="baJf303HVOykrIhzs44v-15" edge="1">
          <mxGeometry relative="1" as="geometry">
            <mxPoint x="260" y="350" as="targetPoint" />
            <mxPoint x="220" y="350" as="sourcePoint" />
          </mxGeometry>
        </mxCell>
        <mxCell id="baJf303HVOykrIhzs44v-32" value="&amp;lt; a-z开始" style="edgeLabel;html=1;align=center;verticalAlign=middle;resizable=0;points=[];fontSize=17;" parent="baJf303HVOykrIhzs44v-14" vertex="1" connectable="0">
          <mxGeometry x="-0.3048" y="2" relative="1" as="geometry">
            <mxPoint x="18" y="2" as="offset" />
          </mxGeometry>
        </mxCell>
        <mxCell id="baJf303HVOykrIhzs44v-9" value="" style="edgeStyle=orthogonalEdgeStyle;rounded=0;orthogonalLoop=1;jettySize=auto;html=1;fontSize=17;" parent="1" source="baJf303HVOykrIhzs44v-3" target="baJf303HVOykrIhzs44v-8" edge="1">
          <mxGeometry relative="1" as="geometry" />
        </mxCell>
        <mxCell id="baJf303HVOykrIhzs44v-34" value="}}结束" style="edgeLabel;html=1;align=center;verticalAlign=middle;resizable=0;points=[];fontSize=17;" parent="baJf303HVOykrIhzs44v-9" vertex="1" connectable="0">
          <mxGeometry x="-0.15" y="-3" relative="1" as="geometry">
            <mxPoint y="-3" as="offset" />
          </mxGeometry>
        </mxCell>
        <mxCell id="baJf303HVOykrIhzs44v-3" value="插值" style="whiteSpace=wrap;html=1;strokeWidth=2;fontSize=17;fillColor=#d5e8d4;strokeColor=#82b366;" parent="1" vertex="1">
          <mxGeometry x="110" y="140" width="120" height="60" as="geometry" />
        </mxCell>
        <mxCell id="baJf303HVOykrIhzs44v-31" style="edgeStyle=orthogonalEdgeStyle;rounded=0;orthogonalLoop=1;jettySize=auto;html=1;exitX=1;exitY=0.5;exitDx=0;exitDy=0;entryX=1;entryY=0.5;entryDx=0;entryDy=0;fontSize=17;" parent="1" source="baJf303HVOykrIhzs44v-6" target="baJf303HVOykrIhzs44v-8" edge="1">
          <mxGeometry relative="1" as="geometry">
            <Array as="points">
              <mxPoint x="930" y="470" />
              <mxPoint x="930" y="170" />
            </Array>
          </mxGeometry>
        </mxCell>
        <mxCell id="baJf303HVOykrIhzs44v-6" value="text" style="whiteSpace=wrap;html=1;strokeWidth=2;fontSize=17;fillColor=#d5e8d4;strokeColor=#82b366;" parent="1" vertex="1">
          <mxGeometry x="110" y="440" width="120" height="60" as="geometry" />
        </mxCell>
        <mxCell id="baJf303HVOykrIhzs44v-8" value="end" style="whiteSpace=wrap;html=1;strokeWidth=2;fontSize=17;fillColor=#f8cecc;strokeColor=#b85450;" parent="1" vertex="1">
          <mxGeometry x="340" y="140" width="120" height="60" as="geometry" />
        </mxCell>
        <mxCell id="baJf303HVOykrIhzs44v-12" style="edgeStyle=orthogonalEdgeStyle;rounded=0;orthogonalLoop=1;jettySize=auto;html=1;fontSize=17;" parent="1" edge="1">
          <mxGeometry relative="1" as="geometry">
            <Array as="points">
              <mxPoint x="410" y="90" />
              <mxPoint x="70" y="90" />
              <mxPoint x="70" y="350" />
            </Array>
            <mxPoint x="410" y="140" as="sourcePoint" />
            <mxPoint x="110" y="350" as="targetPoint" />
          </mxGeometry>
        </mxCell>
        <mxCell id="lnPBHGBlC9FNf3B4ojr3-16" value="回到初始状态" style="edgeLabel;html=1;align=center;verticalAlign=middle;resizable=0;points=[];fontSize=17;" vertex="1" connectable="0" parent="baJf303HVOykrIhzs44v-12">
          <mxGeometry x="-0.2087" y="-4" relative="1" as="geometry">
            <mxPoint x="3" y="4" as="offset" />
          </mxGeometry>
        </mxCell>
        <mxCell id="baJf303HVOykrIhzs44v-18" value="" style="edgeStyle=orthogonalEdgeStyle;rounded=0;orthogonalLoop=1;jettySize=auto;html=1;fontSize=17;" parent="1" source="baJf303HVOykrIhzs44v-15" target="baJf303HVOykrIhzs44v-17" edge="1">
          <mxGeometry relative="1" as="geometry" />
        </mxCell>
        <mxCell id="baJf303HVOykrIhzs44v-15" value="parseElement" style="whiteSpace=wrap;html=1;strokeWidth=2;fontSize=17;fillColor=#d5e8d4;strokeColor=#82b366;" parent="1" vertex="1">
          <mxGeometry x="340" y="320" width="120" height="60" as="geometry" />
        </mxCell>
        <mxCell id="baJf303HVOykrIhzs44v-20" value="" style="edgeStyle=orthogonalEdgeStyle;rounded=0;orthogonalLoop=1;jettySize=auto;html=1;fontSize=17;" parent="1" source="baJf303HVOykrIhzs44v-17" target="baJf303HVOykrIhzs44v-19" edge="1">
          <mxGeometry relative="1" as="geometry" />
        </mxCell>
        <mxCell id="baJf303HVOykrIhzs44v-17" value="parseTag&lt;br style=&quot;font-size: 17px;&quot;&gt;开始" style="whiteSpace=wrap;html=1;strokeWidth=2;fontSize=17;fillColor=#fff2cc;strokeColor=#d6b656;" parent="1" vertex="1">
          <mxGeometry x="490" y="320" width="120" height="60" as="geometry" />
        </mxCell>
        <mxCell id="baJf303HVOykrIhzs44v-22" value="" style="edgeStyle=orthogonalEdgeStyle;rounded=0;orthogonalLoop=1;jettySize=auto;html=1;fontSize=17;" parent="1" source="baJf303HVOykrIhzs44v-19" target="baJf303HVOykrIhzs44v-21" edge="1">
          <mxGeometry relative="1" as="geometry" />
        </mxCell>
        <mxCell id="baJf303HVOykrIhzs44v-19" value="parseChildren" style="whiteSpace=wrap;html=1;strokeWidth=2;fontSize=17;fillColor=#fff2cc;strokeColor=#d6b656;" parent="1" vertex="1">
          <mxGeometry x="640" y="320" width="120" height="60" as="geometry" />
        </mxCell>
        <mxCell id="baJf303HVOykrIhzs44v-28" style="edgeStyle=orthogonalEdgeStyle;rounded=0;orthogonalLoop=1;jettySize=auto;html=1;exitX=0.5;exitY=0;exitDx=0;exitDy=0;entryX=1;entryY=0.5;entryDx=0;entryDy=0;fontSize=17;" parent="1" source="baJf303HVOykrIhzs44v-21" target="baJf303HVOykrIhzs44v-8" edge="1">
          <mxGeometry relative="1" as="geometry" />
        </mxCell>
        <mxCell id="baJf303HVOykrIhzs44v-21" value="parseTag&lt;br style=&quot;font-size: 17px;&quot;&gt;结束" style="whiteSpace=wrap;html=1;strokeWidth=2;fontSize=17;fillColor=#fff2cc;strokeColor=#d6b656;" parent="1" vertex="1">
          <mxGeometry x="790" y="320" width="120" height="60" as="geometry" />
        </mxCell>
        <mxCell id="lnPBHGBlC9FNf3B4ojr3-13" value="初始状态" style="ellipse;whiteSpace=wrap;html=1;fontSize=17;fillColor=#dae8fc;strokeColor=#6c8ebf;" vertex="1" parent="1">
          <mxGeometry x="110" y="290" width="120" height="110" as="geometry" />
        </mxCell>
        <mxCell id="lnPBHGBlC9FNf3B4ojr3-14" style="edgeStyle=orthogonalEdgeStyle;rounded=0;orthogonalLoop=1;jettySize=auto;html=1;exitX=0.5;exitY=0;exitDx=0;exitDy=0;entryX=0.833;entryY=0.091;entryDx=0;entryDy=0;entryPerimeter=0;" edge="1" parent="1" source="baJf303HVOykrIhzs44v-19" target="lnPBHGBlC9FNf3B4ojr3-13">
          <mxGeometry relative="1" as="geometry">
            <Array as="points">
              <mxPoint x="737" y="270" />
              <mxPoint x="210" y="270" />
            </Array>
          </mxGeometry>
        </mxCell>
        <mxCell id="lnPBHGBlC9FNf3B4ojr3-15" value="递归" style="edgeLabel;html=1;align=center;verticalAlign=middle;resizable=0;points=[];fontSize=17;" vertex="1" connectable="0" parent="lnPBHGBlC9FNf3B4ojr3-14">
          <mxGeometry x="0.0543" y="-2" relative="1" as="geometry">
            <mxPoint as="offset" />
          </mxGeometry>
        </mxCell>
      </root>
    </mxGraphModel>
  </diagram>
</mxfile>
